<?xml version="1.0" encoding="utf-8"?>
<!-- Generator: Adobe Illustrator 24.1.3, SVG Export Plug-In . SVG Version: 6.00 Build 0)  -->
<svg version="1.1" id="Camada_1" xmlns="http://www.w3.org/2000/svg" xmlns:xlink="http://www.w3.org/1999/xlink" x="0px" y="0px"
	 viewBox="0 0 64 64" style="enable-background:new 0 0 64 64;" xml:space="preserve">
<style type="text/css">
	.st0{fill:none;stroke:#322153;stroke-width:2;}
	.st1{fill:#34CB79;}
	.st2{fill:none;stroke:#322153;stroke-width:2;stroke-linejoin:round;}
	.st3{fill:none;}
</style>
<path class="st0" d="M16,9h32c2.2,0,4,1.8,4,4v46c0,2.2-1.8,4-4,4H16c-2.2,0-4-1.8-4-4V13C12,10.8,13.8,9,16,9z"/>
<path class="st1" d="M22,5c0-2.8,2.2-5,5-5h10c2.8,0,5,2.2,5,5v5H22V5z"/>
<path class="st0" d="M23,5c0-2.2,1.8-4,4-4h10c2.2,0,4,1.8,4,4v4H23V5z"/>
<path class="st1" d="M23,38.8L32,22v10.2h9L32,49V38.8H23z"/>
<path class="st2" d="M23,38.8L32,22v10.2h9L32,49V38.8H23z"/>
<line class="st0" x1="12" y1="14" x2="53" y2="14"/>
<line class="st0" x1="12" y1="58" x2="53" y2="58"/>
<rect x="-60.9" y="82.2" class="st3" width="46.2" height="46.2"/>
</svg>
